# xmcd
#
# Track frame offsets:
#	150
#	38573
#	45990
#	52774
#	89305
#	92066
#	107958
#	119863
#	133290
# Disc length: 2464 seconds
# Revision: 11
# Processed by: cddbd v1.5PL3 Copyright (c) Steve Scherf et al.
#
# Submitted via: libkcddb 0.10
#
DISCID=75099e09
DTITLE=Yes - Fragile
DYEAR=1972
DGENRE=Progressive Rock
TTITLE0=Roundabout
TTITLE1=Cans And Brahms
TTITLE2=We Have Heaven
TTITLE3=South Side Of The Sky
TTITLE4=Five Per Cent For Nothing
TTITLE5=Long Distance Runaround
TTITLE6=The Fish (Schindleria Praematurus)
TTITLE7=Mood For A Day
TTITLE8=Heart Of The Sunrise
EXTD=YEAR: 1972
EXTT0=
EXTT1=
EXTT2=
EXTT3=
EXTT4=
EXTT5=
EXTT6=
EXTT7=
EXTT8=
PLAYORDER=
